<svg xmlns="http://www.w3.org/2000/svg" viewBox="0 0 200 200" width="200" height="200">
  <circle cx="100" cy="100" r="97" fill="white" stroke="#111111" stroke-width="3"/>
  <defs><path id="topArc" d="M 22,100 A 78,78 0 0,1 178,100"/></defs>
  <text font-family="Arial Black,sans-serif" font-weight="900" font-size="13" fill="#111111" letter-spacing="1.5">
    <textPath href="#topArc" startOffset="7%">HORNSBY KU-RING-GAI</textPath>
  </text>
  <ellipse cx="100" cy="105" rx="28" ry="26" fill="#39FF14" stroke="#111111" stroke-width="2"/>
  <line x1="100" y1="79" x2="100" y2="131" stroke="#111111" stroke-width="1.2"/>
  <line x1="72" y1="105" x2="128" y2="105" stroke="#111111" stroke-width="1.2"/>
  <line x1="80" y1="84" x2="120" y2="126" stroke="#111111" stroke-width="1"/>
  <line x1="120" y1="84" x2="80" y2="126" stroke="#111111" stroke-width="1"/>
  <ellipse cx="100" cy="105" rx="14" ry="13" fill="none" stroke="#111111" stroke-width="1"/>
  <ellipse cx="100" cy="105" rx="25" ry="23" fill="none" stroke="#111111" stroke-width=".8"/>
  <ellipse cx="90" cy="93" rx="7" ry="5" fill="rgba(255,255,255,0.5)" transform="rotate(-20,90,93)"/>
  <ellipse cx="100" cy="77" rx="10" ry="8" fill="#111111"/>
  <path d="M 75,90 Q 55,75 38,60" stroke="#111111" stroke-width="3.5" fill="none" stroke-linecap="round"/>
  <path d="M 74,100 Q 52,92 30,82" stroke="#111111" stroke-width="3.5" fill="none" stroke-linecap="round"/>
  <path d="M 74,112 Q 52,116 30,122" stroke="#111111" stroke-width="3.5" fill="none" stroke-linecap="round"/>
  <path d="M 76,120 Q 58,132 42,148" stroke="#111111" stroke-width="3.5" fill="none" stroke-linecap="round"/>
  <path d="M 125,90 Q 145,75 162,60" stroke="#111111" stroke-width="3.5" fill="none" stroke-linecap="round"/>
  <path d="M 126,100 Q 148,92 170,82" stroke="#111111" stroke-width="3.5" fill="none" stroke-linecap="round"/>
  <path d="M 126,112 Q 148,116 170,122" stroke="#111111" stroke-width="3.5" fill="none" stroke-linecap="round"/>
  <path d="M 124,120 Q 142,132 158,148" stroke="#111111" stroke-width="3.5" fill="none" stroke-linecap="round"/>
  <text x="100" y="168" font-family="Arial Black,sans-serif" font-weight="900" font-size="22" fill="#111111" text-anchor="middle" letter-spacing="2">SPIDERS</text>
</svg>
